<?xml version="1.0" encoding="utf-8"?>
<!-- generated at drububu.com  -->
<!DOCTYPE svg PUBLIC "-//W3C//DTD SVG 1.1//EN" "http://www.w3.org/Graphics/SVG/1.1/DTD/svg11.dtd">
<svg version="1.1" preserveAspectRatio="xMinYMin meet" xmlns="http://www.w3.org/2000/svg" xmlns:xlink="http://www.w3.org/1999/xlink" x="0px" y="0px" width="16px" height="16px" viewBox="0 0 16 16">
<path d="M7 0h1v2h-1v-2z" fill="rgb(255,130,0)"/>
<path d="M8 0h1v2h-1v-2z" fill="rgb(255,190,0)"/>
<path d="M7 2h1v2h-1v-2z" fill="rgb(223,223,223)"/>
<path d="M8 2h1v2h-1v-2z" fill="rgb(255,255,255)"/>
<path d="M6 3h1v1h-1v-1z" fill="rgb(170,170,170)"/>
<path d="M9 3h1v1h-1v-1z" fill="rgb(223,223,223)"/>
<path d="M6 4h1v1h-1v-1z" fill="rgb(255,130,130)"/>
<path d="M7 4h1v1h-1v-1z" fill="rgb(255,130,0)"/>
<path d="M8 4h1v1h-1v-1z" fill="rgb(255,190,0)"/>
<path d="M9 4h1v2h-1v-2z" fill="rgb(255,130,0)"/>
<path d="M6 5h1v1h-1v-1z" fill="rgb(255,130,0)"/>
<path d="M7 5h1v1h-1v-1z" fill="rgb(255,190,0)"/>
<path d="M8 5h1v1h-1v-1z" fill="rgb(255,255,85)"/>
<path d="M5 6h1v1h-1v-1z" fill="rgb(255,130,130)"/>
<path d="M6 6h1v1h-1v-1z" fill="rgb(170,170,170)"/>
<path d="M7 6h2v1h1v1h-3v-2z" fill="rgb(255,255,255)"/>
<path d="M9 6h1v1h-1v-1z" fill="rgb(223,223,223)"/>
<path d="M10 6h1v1h-1v-1z" fill="rgb(255,130,130)"/>
<path d="M5 7h1v1h-1v-1z" fill="rgb(170,170,170)"/>
<path d="M6 7h1v1h-1v-1z" fill="rgb(223,223,223)"/>
<path d="M10 7h1v1h-1v-1z" fill="rgb(223,223,223)"/>
<path d="M5 8h1v1h-1v-1z" fill="rgb(255,130,130)"/>
<path d="M6 8h1v1h-1v-1z" fill="rgb(255,130,0)"/>
<path d="M7 8h1v2h-2v-1h1v-1z" fill="rgb(255,190,0)"/>
<path d="M8 8h1v3h-1v-3z" fill="rgb(255,255,85)"/>
<path d="M9 8h1v1h1v1h-2v-2z" fill="rgb(255,190,0)"/>
<path d="M10 8h1v1h-1v-1z" fill="rgb(255,130,0)"/>
<path d="M4 9h1v1h-1v-1z" fill="rgb(255,130,130)"/>
<path d="M5 9h1v1h-1v-1z" fill="rgb(255,130,0)"/>
<path d="M11 9h1v1h-1v-1z" fill="rgb(255,130,0)"/>
<path d="M4 10h1v2h-1v-2z" fill="rgb(170,170,170)"/>
<path d="M5 10h1v2h-1v-2z" fill="rgb(223,223,223)"/>
<path d="M6 10h1v1h-1v-1z" fill="rgb(255,255,255)"/>
<path d="M7 10h1v1h-1v-1z" fill="rgb(223,223,223)"/>
<path d="M9 10h1v1h1v1h-4v-1h2v-1z" fill="rgb(255,255,255)"/>
<path d="M10 10h2v2h-1v-1h-1v-1z" fill="rgb(223,223,223)"/>
<path d="M6 11h1v1h-1v-1z" fill="rgb(170,170,170)"/>
<path d="M3 12h1v1h-1v-1z" fill="rgb(101,101,101)"/>
<path d="M4 12h2v1h1v1h-2v-1h-1v-1z" fill="rgb(255,130,0)"/>
<path d="M6 12h1v1h-1v-1z" fill="rgb(255,190,0)"/>
<path d="M7 12h1v1h-1v-1z" fill="rgb(255,130,0)"/>
<path d="M8 12h2v1h1v1h-4v-1h1v-1z" fill="rgb(255,190,0)"/>
<path d="M10 12h1v1h-1v-1z" fill="rgb(255,130,0)"/>
<path d="M11 12h1v1h-1v-1z" fill="rgb(255,190,0)"/>
<path d="M12 12h1v1h-1v-1z" fill="rgb(255,130,0)"/>
<path d="M3 13h1v1h-1v-1z" fill="rgb(255,130,0)"/>
<path d="M4 13h1v1h-1v-1z" fill="rgb(101,101,101)"/>
<path d="M11 13h1v1h3v2h-14v-2h1v1h6v-1h3v-1z" fill="rgb(255,130,0)"/>
<path d="M12 13h1v1h-1v-1z" fill="rgb(255,190,0)"/>
<path d="M2 14h1v1h-1v-1z" fill="rgb(255,130,130)"/>
<path d="M3 14h1v1h-1v-1z" fill="rgb(101,101,101)"/>
<path d="M4 14h1v1h-1v-1z" fill="rgb(255,130,130)"/>
<path d="M5 14h1v1h-1v-1z" fill="rgb(255,85,85)"/>
<path d="M6 14h1v1h-1v-1z" fill="rgb(255,130,130)"/>
<path d="M7 14h1v1h-1v-1z" fill="rgb(255,85,85)"/>
</svg>