<?xml version="1.0" encoding="utf-8"?>
<!-- generated at drububu.com  -->
<!DOCTYPE svg PUBLIC "-//W3C//DTD SVG 1.1//EN" "http://www.w3.org/Graphics/SVG/1.1/DTD/svg11.dtd">
<svg version="1.1" preserveAspectRatio="xMinYMin meet" xmlns="http://www.w3.org/2000/svg" xmlns:xlink="http://www.w3.org/1999/xlink" x="0px" y="0px" width="16px" height="16px" viewBox="0 0 16 16">
<path d="M1 0h1v1h-1v-1z" fill="rgb(57,113,113)"/>
<path d="M2 0h1v1h-1v-1z" fill="rgb(57,57,113)"/>
<path d="M3 0h1v1h-1v-1z" fill="rgb(57,113,113)"/>
<path d="M4 0h4v1h-4v-1z" fill="rgb(57,57,113)"/>
<path d="M8 0h1v1h-1v-1z" fill="rgb(57,113,113)"/>
<path d="M9 0h6v1h1v5h-1v1h-1v1h-3v-2h3v-3h-2v-2h-3v-1z" fill="rgb(57,57,113)"/>
<path d="M0 1h1v1h-1v-1z" fill="rgb(57,113,113)"/>
<path d="M1 1h7v4h-1v1h-1v1h-5v-3h3v1h1v-2h-1v-1h-3v-1z" fill="rgb(130,158,255)"/>
<path d="M8 1h1v1h-1v-1z" fill="rgb(81,97,113)"/>
<path d="M9 1h3v2h-1v-1h-2v-1z" fill="rgb(57,113,113)"/>
<path d="M0 2h1v2h-1v-2z" fill="rgb(130,158,255)"/>
<path d="M1 2h1v1h1v-1h1v1h1v1h-4v-2z" fill="rgb(186,202,255)"/>
<path d="M2 2h1v1h-1v-1z" fill="rgb(190,130,255)"/>
<path d="M8 2h1v1h-1v-1z" fill="rgb(130,130,255)"/>
<path d="M9 2h1v1h-1v-1z" fill="rgb(81,97,113)"/>
<path d="M10 2h1v1h-1v-1z" fill="rgb(130,130,255)"/>
<path d="M8 3h1v1h-1v-1z" fill="rgb(85,85,255)"/>
<path d="M9 3h5v2h-1v-1h-1v2h-1v2h1v1h1v-1h1v3h-3v4h-3v-2h1v-1h-1v-1h-2v-3h2v-3
	h1v-2z" fill="rgb(255,255,186)"/>
<path d="M0 4h1v1h-1v-1z" fill="rgb(57,113,113)"/>
<path d="M4 4h1v1h-1v-1z" fill="rgb(190,130,255)"/>
<path d="M8 4h1v1h-1v-1z" fill="rgb(255,255,255)"/>
<path d="M12 4h1v1h-1v-1z" fill="rgb(255,255,255)"/>
<path d="M0 5h1v1h-1v-1z" fill="rgb(85,85,255)"/>
<path d="M7 5h1v1h-1v-1z" fill="rgb(85,85,255)"/>
<path d="M12 5h2v1h-2v-1z" fill="rgb(186,202,255)"/>
<path d="M0 6h1v1h-1v-1z" fill="rgb(0,170,170)"/>
<path d="M6 6h1v1h-1v-1z" fill="rgb(130,130,255)"/>
<path d="M7 6h1v1h-1v-1z" fill="rgb(81,97,113)"/>
<path d="M15 6h1v1h-1v-1z" fill="rgb(45,53,65)"/>
<path d="M0 7h1v1h-1v-1z" fill="rgb(57,57,113)"/>
<path d="M1 7h4v1h-1v2h-1v1h-1v-2h-2v-1h1v-1z" fill="rgb(57,113,113)"/>
<path d="M5 7h1v1h-1v-1z" fill="rgb(85,85,255)"/>
<path d="M6 7h1v1h-1v-1z" fill="rgb(81,97,113)"/>
<path d="M7 7h1v1h-1v-1z" fill="rgb(57,113,113)"/>
<path d="M14 7h1v1h-1v-1z" fill="rgb(45,53,65)"/>
<path d="M15 7h1v1h-1v-1z" fill="rgb(57,57,113)"/>
<path d="M2 8h1v1h-1v-1z" fill="rgb(57,57,113)"/>
<path d="M4 8h1v1h1v2h2v3h-2v1h-5v-1h-1v-1h1v-1h-1v-3h2v2h1v-1h1v-2z" fill="rgb(57,57,113)"/>
<path d="M5 8h1v1h-1v-1z" fill="rgb(57,113,113)"/>
<path d="M8 8h1v1h-1v-1z" fill="rgb(255,255,255)"/>
<path d="M12 8h1v1h-1v-1z" fill="rgb(255,255,255)"/>
<path d="M14 8h1v1h-1v-1z" fill="rgb(57,57,113)"/>
<path d="M15 8h1v1h-1v-1z" fill="rgb(45,53,65)"/>
<path d="M14 9h1v1h-1v-1z" fill="rgb(45,53,65)"/>
<path d="M15 9h1v1h-1v-1z" fill="rgb(57,57,113)"/>
<path d="M14 10h1v1h-1v-1z" fill="rgb(0,57,113)"/>
<path d="M15 10h1v1h-1v-1z" fill="rgb(45,53,65)"/>
<path d="M11 11h1v1h-1v-1z" fill="rgb(57,57,113)"/>
<path d="M12 11h1v1h-1v-1z" fill="rgb(45,53,65)"/>
<path d="M13 11h1v1h-1v-1z" fill="rgb(57,57,113)"/>
<path d="M14 11h1v1h-1v-1z" fill="rgb(45,53,65)"/>
<path d="M15 11h1v1h-1v-1z" fill="rgb(57,57,113)"/>
<path d="M0 12h1v1h-1v-1z" fill="rgb(57,113,113)"/>
<path d="M8 12h1v1h-1v-1z" fill="rgb(255,255,255)"/>
<path d="M11 12h1v1h-1v-1z" fill="rgb(45,53,65)"/>
<path d="M12 12h1v1h-1v-1z" fill="rgb(0,57,113)"/>
<path d="M13 12h1v1h-1v-1z" fill="rgb(45,53,65)"/>
<path d="M14 12h1v1h-1v-1z" fill="rgb(57,57,113)"/>
<path d="M15 12h1v1h-1v-1z" fill="rgb(45,53,65)"/>
<path d="M11 13h1v1h-1v-1z" fill="rgb(57,57,113)"/>
<path d="M12 13h1v1h-1v-1z" fill="rgb(45,53,65)"/>
<path d="M13 13h1v1h-1v-1z" fill="rgb(57,57,113)"/>
<path d="M14 13h1v1h-1v-1z" fill="rgb(45,53,65)"/>
<path d="M15 13h1v1h-1v-1z" fill="rgb(57,57,113)"/>
<path d="M0 14h1v1h-1v-1z" fill="rgb(0,49,65)"/>
<path d="M6 14h1v1h-1v-1z" fill="rgb(0,57,113)"/>
<path d="M7 14h1v1h-1v-1z" fill="rgb(45,53,65)"/>
<path d="M11 14h1v1h-1v-1z" fill="rgb(45,53,65)"/>
<path d="M12 14h1v1h-1v-1z" fill="rgb(0,57,113)"/>
<path d="M13 14h1v1h-1v-1z" fill="rgb(45,53,65)"/>
<path d="M14 14h1v1h-1v-1z" fill="rgb(0,49,65)"/>
<path d="M15 14h1v1h-1v-1z" fill="rgb(45,53,65)"/>
<path d="M1 15h5v1h-5v-1z" fill="rgb(0,49,65)"/>
<path d="M6 15h1v1h-1v-1z" fill="rgb(45,53,65)"/>
<path d="M7 15h1v1h-1v-1z" fill="rgb(0,49,65)"/>
<path d="M8 15h3v1h-3v-1z" fill="rgb(186,202,255)"/>
<path d="M11 15h1v1h-1v-1z" fill="rgb(0,49,65)"/>
<path d="M12 15h1v1h-1v-1z" fill="rgb(45,53,65)"/>
<path d="M13 15h1v1h-1v-1z" fill="rgb(0,49,65)"/>
<path d="M14 15h1v1h-1v-1z" fill="rgb(45,53,65)"/>
</svg>