<?xml version="1.0" encoding="utf-8"?>
<!-- generated at drububu.com  -->
<!DOCTYPE svg PUBLIC "-//W3C//DTD SVG 1.1//EN" "http://www.w3.org/Graphics/SVG/1.1/DTD/svg11.dtd">
<svg version="1.1" preserveAspectRatio="xMinYMin meet" xmlns="http://www.w3.org/2000/svg" xmlns:xlink="http://www.w3.org/1999/xlink" x="0px" y="0px" width="16px" height="16px" viewBox="0 0 16 16">
<path d="M5 0h6v1h-6v-1z" fill="rgb(65,0,49)"/>
<path d="M3 1h2v1h-2v-1z" fill="rgb(65,0,49)"/>
<path d="M5 1h2v1h2v-1h2v1h2v1h1v2h1v1h-1v1h-1v-1h-1v-2h-2v-1h-4v1h-2v2h-1v4h1
	v2h1v1h3v2h-3v-1h-2v-1h-1v-2h-1v-1h1v-1h-1v-3h1v-1h1v-1h-1v-1h1v-1h2v-1z" fill="rgb(223,223,223)"/>
<path d="M7 1h1v1h-1v-1z" fill="rgb(255,186,186)"/>
<path d="M8 1h1v1h-1v-1z" fill="rgb(202,202,202)"/>
<path d="M11 1h2v1h-2v-1z" fill="rgb(65,0,49)"/>
<path d="M2 2h1v1h-1v-1z" fill="rgb(65,0,49)"/>
<path d="M13 2h1v1h-1v-1z" fill="rgb(65,0,49)"/>
<path d="M1 3h1v2h-1v-2z" fill="rgb(65,0,49)"/>
<path d="M6 3h4v1h-4v-1z" fill="rgb(170,85,0)"/>
<path d="M14 3h1v2h-1v-2z" fill="rgb(65,0,49)"/>
<path d="M2 4h1v1h-1v-1z" fill="rgb(255,186,186)"/>
<path d="M4 4h1v1h-1v-1z" fill="rgb(170,85,0)"/>
<path d="M5 4h1v1h-1v-1z" fill="rgb(113,113,0)"/>
<path d="M6 4h1v1h1v1h-1v1h-1v-1h-1v-1h1v-1z" fill="rgb(239,255,186)"/>
<path d="M7 4h1v1h-1v-1z" fill="rgb(0,170,0)"/>
<path d="M8 4h1v1h-1v-1z" fill="rgb(113,113,0)"/>
<path d="M9 4h1v2h-1v-2z" fill="rgb(0,170,0)"/>
<path d="M10 4h1v1h1v1h-2v-2z" fill="rgb(113,113,0)"/>
<path d="M11 4h1v1h-1v-1z" fill="rgb(170,85,0)"/>
<path d="M0 5h1v6h-1v-6z" fill="rgb(65,0,49)"/>
<path d="M1 5h1v1h-1v-1z" fill="rgb(202,202,202)"/>
<path d="M4 5h1v2h-1v-2z" fill="rgb(113,113,0)"/>
<path d="M8 5h1v1h-1v-1z" fill="rgb(113,85,0)"/>
<path d="M15 5h1v6h-1v-6z" fill="rgb(65,0,49)"/>
<path d="M3 6h1v4h-1v-4z" fill="rgb(170,85,0)"/>
<path d="M5 6h1v1h-1v-1z" fill="rgb(0,170,0)"/>
<path d="M7 6h2v1h1v2h-1v1h-2v-1h-1v-2h1v-1z" fill="rgb(16,16,16)"/>
<path d="M9 6h1v1h-1v-1z" fill="rgb(170,85,0)"/>
<path d="M10 6h2v1h-2v-1z" fill="rgb(0,170,0)"/>
<path d="M12 6h1v4h-1v-4z" fill="rgb(170,85,0)"/>
<path d="M14 6h1v1h-1v-1z" fill="rgb(202,202,202)"/>
<path d="M4 7h1v1h-1v-1z" fill="rgb(0,170,0)"/>
<path d="M5 7h1v2h-1v-2z" fill="rgb(113,85,0)"/>
<path d="M10 7h1v2h-1v-2z" fill="rgb(113,85,0)"/>
<path d="M11 7h1v1h-1v-1z" fill="rgb(113,113,0)"/>
<path d="M13 7h2v1h-2v-1z" fill="rgb(255,186,186)"/>
<path d="M4 8h1v1h-1v-1z" fill="rgb(113,113,0)"/>
<path d="M11 8h1v1h-1v-1z" fill="rgb(0,170,0)"/>
<path d="M13 8h2v1h-1v1h1v1h-1v2h-1v1h-2v1h-1v-1h-1v-1h1v-1h2v-2h1v-2z" fill="rgb(223,223,223)"/>
<path d="M1 9h1v1h-1v-1z" fill="rgb(255,186,186)"/>
<path d="M4 9h2v1h1v2h-1v-1h-1v-1h-1v-1z" fill="rgb(0,170,0)"/>
<path d="M6 9h1v1h-1v-1z" fill="rgb(170,85,0)"/>
<path d="M9 9h1v1h-1v-1z" fill="rgb(170,85,0)"/>
<path d="M10 9h1v2h-2v-1h1v-1z" fill="rgb(0,170,0)"/>
<path d="M11 9h1v2h-1v-2z" fill="rgb(113,113,0)"/>
<path d="M14 9h1v1h-1v-1z" fill="rgb(255,186,186)"/>
<path d="M4 10h1v1h-1v-1z" fill="rgb(113,113,0)"/>
<path d="M7 10h2v1h-2v-1z" fill="rgb(113,85,0)"/>
<path d="M1 11h1v2h-1v-2z" fill="rgb(65,0,49)"/>
<path d="M4 11h1v1h-1v-1z" fill="rgb(170,85,0)"/>
<path d="M5 11h1v1h-1v-1z" fill="rgb(113,113,0)"/>
<path d="M7 11h1v1h-1v-1z" fill="rgb(113,113,0)"/>
<path d="M8 11h1v1h-1v-1z" fill="rgb(0,170,0)"/>
<path d="M9 11h2v1h-2v-1z" fill="rgb(113,113,0)"/>
<path d="M11 11h1v1h-1v-1z" fill="rgb(170,85,0)"/>
<path d="M14 11h1v2h-1v-2z" fill="rgb(65,0,49)"/>
<path d="M5 12h1v1h-1v-1z" fill="rgb(202,202,202)"/>
<path d="M6 12h4v1h-4v-1z" fill="rgb(170,85,0)"/>
<path d="M2 13h1v1h-1v-1z" fill="rgb(65,0,49)"/>
<path d="M8 13h1v1h-1v-1z" fill="rgb(255,186,186)"/>
<path d="M13 13h1v1h-1v-1z" fill="rgb(65,0,49)"/>
<path d="M3 14h2v1h-2v-1z" fill="rgb(65,0,49)"/>
<path d="M8 14h1v1h-1v-1z" fill="rgb(202,202,202)"/>
<path d="M9 14h1v1h-1v-1z" fill="rgb(255,186,186)"/>
<path d="M11 14h2v1h-2v-1z" fill="rgb(65,0,49)"/>
<path d="M5 15h6v1h-6v-1z" fill="rgb(65,0,49)"/>
</svg>