<?xml version="1.0" encoding="utf-8"?>
<!-- generated at drububu.com  -->
<!DOCTYPE svg PUBLIC "-//W3C//DTD SVG 1.1//EN" "http://www.w3.org/Graphics/SVG/1.1/DTD/svg11.dtd">
<svg version="1.1" preserveAspectRatio="xMinYMin meet" xmlns="http://www.w3.org/2000/svg" xmlns:xlink="http://www.w3.org/1999/xlink" x="0px" y="0px" width="16px" height="16px" viewBox="0 0 16 16">
<path d="M5 0h6v1h-6v-1z" fill="rgb(57,57,113)"/>
<path d="M3 1h2v1h-2v-1z" fill="rgb(57,57,113)"/>
<path d="M5 1h6v1h2v1h1v2h-1v-1h-1v-1h-1v1h-1v-1h-1v1h-2v-1h-1v1h-1v-1h-1v1h-1
	v1h-1v-2h1v-1h2v-1z" fill="rgb(255,255,255)"/>
<path d="M11 1h2v1h-2v-1z" fill="rgb(57,57,113)"/>
<path d="M2 2h1v1h-1v-1z" fill="rgb(57,57,113)"/>
<path d="M13 2h1v1h-1v-1z" fill="rgb(57,57,113)"/>
<path d="M1 3h1v2h-1v-2z" fill="rgb(57,57,113)"/>
<path d="M4 3h1v1h-1v-1z" fill="rgb(186,255,255)"/>
<path d="M6 3h1v1h-1v-1z" fill="rgb(186,255,255)"/>
<path d="M9 3h1v1h-1v-1z" fill="rgb(186,255,255)"/>
<path d="M11 3h1v1h-1v-1z" fill="rgb(186,255,255)"/>
<path d="M14 3h1v2h-1v-2z" fill="rgb(57,57,113)"/>
<path d="M3 4h1v1h-1v-1z" fill="rgb(186,255,255)"/>
<path d="M4 4h1v1h-1v-1z" fill="rgb(85,0,113)"/>
<path d="M5 4h1v1h-1v-1z" fill="rgb(158,130,255)"/>
<path d="M6 4h1v1h-1v-1z" fill="rgb(255,255,255)"/>
<path d="M7 4h1v1h-1v-1z" fill="rgb(186,255,255)"/>
<path d="M8 4h1v1h-1v-1z" fill="rgb(223,255,186)"/>
<path d="M9 4h1v1h-1v-1z" fill="rgb(255,255,255)"/>
<path d="M10 4h1v1h-1v-1z" fill="rgb(158,130,255)"/>
<path d="M11 4h1v3h-1v-1h-1v1h1v1h-1v1h-1v-2h-1v-1h-1v1h1v2h-1v-1h-1v-1h-1v1h-1
	v-3h7v-1z" fill="rgb(57,0,113)"/>
<path d="M12 4h1v1h-1v-1z" fill="rgb(223,255,186)"/>
<path d="M0 5h1v6h-1v-6z" fill="rgb(57,57,113)"/>
<path d="M1 5h1v1h-1v-1z" fill="rgb(255,255,255)"/>
<path d="M2 5h1v1h-1v-1z" fill="rgb(186,255,255)"/>
<path d="M3 5h1v1h-1v-1z" fill="rgb(255,255,255)"/>
<path d="M12 5h1v1h-1v-1z" fill="rgb(255,255,255)"/>
<path d="M13 5h1v4h-1v-1h-1v-2h1v-1z" fill="rgb(186,255,255)"/>
<path d="M14 5h1v1h-1v-1z" fill="rgb(255,255,255)"/>
<path d="M15 5h1v6h-1v-6z" fill="rgb(57,57,113)"/>
<path d="M1 6h1v1h-1v-1z" fill="rgb(186,202,255)"/>
<path d="M2 6h1v1h-1v-1z" fill="rgb(223,255,186)"/>
<path d="M3 6h1v4h-1v-1h-1v-2h1v-1z" fill="rgb(186,255,255)"/>
<path d="M7 6h1v1h-1v-1z" fill="rgb(85,0,113)"/>
<path d="M10 6h1v1h-1v-1z" fill="rgb(85,0,113)"/>
<path d="M14 6h1v1h-1v-1z" fill="rgb(130,223,255)"/>
<path d="M1 7h1v1h-1v-1z" fill="rgb(255,255,255)"/>
<path d="M5 7h1v1h-1v-1z" fill="rgb(85,0,113)"/>
<path d="M8 7h1v2h1v-1h1v1h1v1h-2v1h-1v1h1v3h-3v-1h-1v-1h-2v-1h3v-1h-2v-1h-1v-2
	h1v1h1v-1h1v1h1v-2z" fill="rgb(85,0,113)"/>
<path d="M11 7h1v1h-1v-1z" fill="rgb(85,0,113)"/>
<path d="M14 7h1v1h-1v-1z" fill="rgb(255,255,255)"/>
<path d="M1 8h1v1h-1v-1z" fill="rgb(186,202,255)"/>
<path d="M5 8h1v1h-1v-1z" fill="rgb(57,0,113)"/>
<path d="M11 8h1v1h-1v-1z" fill="rgb(57,0,113)"/>
<path d="M12 8h1v1h-1v-1z" fill="rgb(223,255,186)"/>
<path d="M14 8h1v1h-1v-1z" fill="rgb(186,202,255)"/>
<path d="M1 9h1v1h-1v-1z" fill="rgb(186,255,255)"/>
<path d="M2 9h1v1h-1v-1z" fill="rgb(186,202,255)"/>
<path d="M12 9h1v1h-1v-1z" fill="rgb(186,255,255)"/>
<path d="M13 9h1v1h-1v-1z" fill="rgb(186,202,255)"/>
<path d="M14 9h1v1h-1v-1z" fill="rgb(186,255,255)"/>
<path d="M1 10h1v1h-1v-1z" fill="rgb(186,202,255)"/>
<path d="M2 10h1v1h-1v-1z" fill="rgb(223,255,186)"/>
<path d="M3 10h1v1h-1v-1z" fill="rgb(186,202,255)"/>
<path d="M4 10h1v1h-1v-1z" fill="rgb(186,255,255)"/>
<path d="M10 10h1v1h-1v-1z" fill="rgb(130,0,255)"/>
<path d="M11 10h1v1h-1v-1z" fill="rgb(186,255,255)"/>
<path d="M12 10h1v1h-1v-1z" fill="rgb(130,223,255)"/>
<path d="M13 10h1v1h-1v-1z" fill="rgb(186,255,255)"/>
<path d="M14 10h1v1h-1v-1z" fill="rgb(130,223,255)"/>
<path d="M1 11h1v2h-1v-2z" fill="rgb(57,57,113)"/>
<path d="M2 11h1v1h-1v-1z" fill="rgb(186,202,255)"/>
<path d="M3 11h1v1h-1v-1z" fill="rgb(85,0,113)"/>
<path d="M4 11h1v1h-1v-1z" fill="rgb(130,0,255)"/>
<path d="M5 11h2v1h-2v-1z" fill="rgb(186,202,255)"/>
<path d="M9 11h3v1h-3v-1z" fill="rgb(186,202,255)"/>
<path d="M12 11h1v1h-1v-1z" fill="rgb(186,255,255)"/>
<path d="M13 11h1v2h-1v-2z" fill="rgb(186,202,255)"/>
<path d="M14 11h1v2h-1v-2z" fill="rgb(57,57,113)"/>
<path d="M2 12h1v1h-1v-1z" fill="rgb(130,223,255)"/>
<path d="M3 12h1v1h2v2h-1v-1h-2v-2z" fill="rgb(186,202,255)"/>
<path d="M10 12h1v1h-1v-1z" fill="rgb(130,223,255)"/>
<path d="M11 12h1v1h-1v-1z" fill="rgb(186,255,255)"/>
<path d="M12 12h1v1h-1v-1z" fill="rgb(130,223,255)"/>
<path d="M2 13h1v1h-1v-1z" fill="rgb(57,57,113)"/>
<path d="M10 13h3v1h-3v-1z" fill="rgb(186,202,255)"/>
<path d="M13 13h1v1h-1v-1z" fill="rgb(57,57,113)"/>
<path d="M3 14h2v1h-2v-1z" fill="rgb(57,57,113)"/>
<path d="M6 14h1v1h-1v-1z" fill="rgb(130,0,255)"/>
<path d="M10 14h1v1h-1v-1z" fill="rgb(130,223,255)"/>
<path d="M11 14h2v1h-2v-1z" fill="rgb(57,57,113)"/>
<path d="M5 15h6v1h-6v-1z" fill="rgb(57,57,113)"/>
</svg>