<?xml version="1.0" encoding="utf-8"?>
<!-- generated at drububu.com  -->
<!DOCTYPE svg PUBLIC "-//W3C//DTD SVG 1.1//EN" "http://www.w3.org/Graphics/SVG/1.1/DTD/svg11.dtd">
<svg version="1.1" preserveAspectRatio="xMinYMin meet" xmlns="http://www.w3.org/2000/svg" xmlns:xlink="http://www.w3.org/1999/xlink" x="0px" y="0px" width="48px" height="48px" viewBox="0 0 48 48">

<path d="M19 0h10v1h-10v-1z" fill="rgb(113,85,0)"/>

<path d="M15 1h4v1h-4v-1z" fill="rgb(113,85,0)"/>
<path d="M19 1h8v1h-8v-1z" fill="rgb(255,223,130)"/>
<path d="M27 1h2v1h4v1h-1v1h-1v2h-1v-2h-1v-1h-1v-1h-1v-1z" fill="rgb(255,158,130)"/>
<path d="M29 1h4v1h-4v-1z" fill="rgb(113,85,0)"/>
<path d="M13 2h2v1h-2v-1z" fill="rgb(113,85,0)"/>
<path d="M15 2h4v1h-4v-1z" fill="rgb(255,223,130)"/>
<path d="M19 2h9v1h1v1h1v2h1v6h-1v2h-1v1h-2v1h-3v1h-8v-1h-1v1h-2v-5h-1v2h-1v8h1
	v2h-1v-1h-1v-1h-1v-1h-1v-3h-1v-7h1v-2h1v-2h1v-1h2v-1h1v-1h2v-1h4v-1z" fill="rgb(255,190,130)"/>
<path d="M33 2h2v1h-2v-1z" fill="rgb(113,85,0)"/>
<path d="M12 3h1v1h-1v-1z" fill="rgb(113,85,0)"/>
<path d="M13 3h2v1h-2v-1z" fill="rgb(255,223,130)"/>
<path d="M32 3h1v1h2v1h1v1h2v1h1v2h1v2h1v7h-1v1h-1v3h-1v1h-1v1h-1v-2h1v-5h-1v-1
	h-1v-1h-1v-1h-1v-1h-1v-7h-1v-2h1v-1z" fill="rgb(255,190,130)"/>
<path d="M33 3h2v1h-2v-1z" fill="rgb(255,223,130)"/>
<path d="M35 3h1v1h-1v-1z" fill="rgb(113,85,0)"/>
<path d="M10 4h2v1h-2v-1z" fill="rgb(113,85,0)"/>
<path d="M12 4h1v1h-1v-1z" fill="rgb(255,223,130)"/>
<path d="M35 4h1v1h-1v-1z" fill="rgb(255,223,130)"/>
<path d="M36 4h2v1h-2v-1z" fill="rgb(113,85,0)"/>
<path d="M9 5h1v1h-1v-1z" fill="rgb(113,85,0)"/>
<path d="M10 5h2v1h-2v-1z" fill="rgb(255,223,130)"/>
<path d="M36 5h2v1h-2v-1z" fill="rgb(255,223,130)"/>
<path d="M38 5h1v1h-1v-1z" fill="rgb(113,85,0)"/>
<path d="M8 6h1v1h-1v-1z" fill="rgb(113,85,0)"/>
<path d="M9 6h1v1h-1v-1z" fill="rgb(255,223,130)"/>
<path d="M31 6h1v2h-1v-2z" fill="rgb(255,158,130)"/>
<path d="M38 6h1v1h-1v-1z" fill="rgb(255,223,130)"/>
<path d="M39 6h1v1h-1v-1z" fill="rgb(113,85,0)"/>
<path d="M7 7h1v2h-1v-2z" fill="rgb(113,85,0)"/>
<path d="M8 7h1v2h-1v-2z" fill="rgb(255,223,130)"/>
<path d="M39 7h1v2h-1v-2z" fill="rgb(255,223,130)"/>
<path d="M40 7h1v2h-1v-2z" fill="rgb(113,85,0)"/>
<path d="M31 8h1v5h1v1h1v1h-5v-1h1v-2h1v-4z" fill="rgb(255,223,186)"/>
<path d="M6 9h1v2h-1v-2z" fill="rgb(113,85,0)"/>
<path d="M7 9h1v2h-1v-2z" fill="rgb(255,223,130)"/>
<path d="M40 9h1v2h-1v-2z" fill="rgb(255,223,130)"/>
<path d="M41 9h1v2h-1v-2z" fill="rgb(113,85,0)"/>
<path d="M5 11h1v8h-1v-8z" fill="rgb(113,85,0)"/>
<path d="M6 11h1v7h-1v-7z" fill="rgb(255,223,130)"/>
<path d="M41 11h1v7h-1v-7z" fill="rgb(255,223,130)"/>
<path d="M42 11h1v8h-1v-8z" fill="rgb(113,85,0)"/>
<path d="M12 12h1v5h2v1h-1v1h-1v3h1v1h6v-1h1v-3h-1v-2h4v-1h3v1h1v2h-1v3h1v1h6
	v-1h1v-3h-1v-1h-1v-1h-1v-1h2v-1h1v1h1v1h1v5h-1v2h-1v1h1v-1h1v-1h1v-1h1v1h1v-2h1
	v-1h-1v-1h2v4h-1v1h-3v1h-1v1h-1v1h-1v1h-2v1h-2v1h-2v1h-10v-1h-2v-1h-2v-1h-2v-1
	h-1v-1h-1v-1h-1v-1h-3v-1h-1v-4h2v1h-1v1h1v2h1v-1h1v1h1v1h1v-2h-1v-8h1v-2z" fill="rgb(255,223,186)"/>
<path d="M27 15h1v1h-1v-1z" fill="rgb(255,223,186)"/>
<path d="M28 15h6v1h-2v1h-3v-1h-1v-1z" fill="rgb(170,85,0)"/>
<path d="M15 16h1v1h-1v-1z" fill="rgb(255,223,186)"/>
<path d="M27 16h2v1h-2v-1z" fill="rgb(255,158,130)"/>
<path d="M15 17h5v1h-5v-1z" fill="rgb(255,186,186)"/>
<path d="M28 17h5v1h-5v-1z" fill="rgb(255,186,186)"/>
<path d="M6 18h2v1h-2v-1z" fill="rgb(255,158,130)"/>
<path d="M14 18h6v1h-6v-1z" fill="rgb(113,85,57)"/>
<path d="M28 18h6v1h-6v-1z" fill="rgb(113,85,57)"/>
<path d="M40 18h2v1h-2v-1z" fill="rgb(255,158,130)"/>
<path d="M4 19h1v4h-1v-4z" fill="rgb(113,85,0)"/>
<path d="M5 19h1v4h-1v-4z" fill="rgb(255,158,130)"/>
<path d="M13 19h1v2h-1v-2z" fill="rgb(170,85,0)"/>
<path d="M14 19h1v1h1v1h2v-1h1v-1h1v2h-1v1h-4v-1h-1v-2z" fill="rgb(223,223,223)"/>
<path d="M15 19h1v1h-1v-1z" fill="rgb(113,113,0)"/>
<path d="M16 19h2v1h-2v-1z" fill="rgb(65,65,32)"/>
<path d="M18 19h1v1h-1v-1z" fill="rgb(113,113,0)"/>
<path d="M20 19h1v2h-1v-2z" fill="rgb(170,85,0)"/>
<path d="M27 19h1v2h-1v-2z" fill="rgb(170,85,0)"/>
<path d="M28 19h1v1h1v1h2v-1h1v-1h1v2h-1v1h-4v-1h-1v-2z" fill="rgb(223,223,223)"/>
<path d="M29 19h1v1h-1v-1z" fill="rgb(113,113,0)"/>
<path d="M30 19h2v1h-2v-1z" fill="rgb(65,65,32)"/>
<path d="M32 19h1v1h-1v-1z" fill="rgb(113,113,0)"/>
<path d="M34 19h1v2h-1v-2z" fill="rgb(170,85,0)"/>
<path d="M39 19h1v1h1v1h-1v2h-1v-4z" fill="rgb(255,158,130)"/>
<path d="M42 19h1v4h-1v-4z" fill="rgb(255,158,130)"/>
<path d="M43 19h1v4h-1v-4z" fill="rgb(113,85,0)"/>
<path d="M7 20h1v1h-1v-1z" fill="rgb(255,158,130)"/>
<path d="M16 20h2v1h-2v-1z" fill="rgb(113,113,0)"/>
<path d="M30 20h2v1h-2v-1z" fill="rgb(113,113,0)"/>
<path d="M8 21h1v2h-1v-2z" fill="rgb(255,158,130)"/>
<path d="M13 21h1v1h-1v-1z" fill="rgb(255,186,186)"/>
<path d="M14 21h1v1h-1v-1z" fill="rgb(170,85,0)"/>
<path d="M19 21h1v1h-1v-1z" fill="rgb(170,85,0)"/>
<path d="M20 21h1v1h-1v-1z" fill="rgb(255,186,186)"/>
<path d="M27 21h1v1h-1v-1z" fill="rgb(255,186,186)"/>
<path d="M28 21h1v1h-1v-1z" fill="rgb(170,85,0)"/>
<path d="M33 21h1v1h-1v-1z" fill="rgb(170,85,0)"/>
<path d="M34 21h1v1h-1v-1z" fill="rgb(255,186,186)"/>
<path d="M14 22h1v1h-1v-1z" fill="rgb(255,186,186)"/>
<path d="M15 22h4v1h-4v-1z" fill="rgb(170,85,0)"/>
<path d="M19 22h1v1h-1v-1z" fill="rgb(255,186,186)"/>
<path d="M23 22h2v1h-2v-1z" fill="rgb(255,158,130)"/>
<path d="M28 22h1v1h-1v-1z" fill="rgb(255,186,186)"/>
<path d="M29 22h4v1h-4v-1z" fill="rgb(170,85,0)"/>
<path d="M33 22h1v1h-1v-1z" fill="rgb(255,186,186)"/>
<path d="M5 23h1v1h-1v-1z" fill="rgb(113,85,0)"/>
<path d="M6 23h1v1h-1v-1z" fill="rgb(255,158,130)"/>
<path d="M41 23h1v1h-1v-1z" fill="rgb(255,158,130)"/>
<path d="M42 23h1v1h-1v-1z" fill="rgb(113,85,0)"/>
<path d="M4 24h1v2h-1v-2z" fill="rgb(113,85,0)"/>
<path d="M5 24h1v2h-1v-2z" fill="rgb(255,223,130)"/>
<path d="M6 24h1v1h3v1h1v1h1v1h1v1h1v1h-1v1h-1v1h-7v-1h-2v-2h1v-1h1v-2h1v-2z" fill="rgb(255,190,130)"/>
<path d="M7 24h3v1h-3v-1z" fill="rgb(255,158,130)"/>
<path d="M12 24h1v1h-1v-1z" fill="rgb(255,190,130)"/>
<path d="M35 24h1v1h-1v-1z" fill="rgb(255,190,130)"/>
<path d="M38 24h3v1h-3v-1z" fill="rgb(255,158,130)"/>
<path d="M41 24h1v2h1v2h1v1h1v2h-2v1h-7v-1h-1v-1h-1v-1h1v-1h1v-1h1v-1h1v-1h3v-1z" fill="rgb(255,190,130)"/>
<path d="M42 24h1v2h-1v-2z" fill="rgb(255,223,130)"/>
<path d="M43 24h1v2h-1v-2z" fill="rgb(113,85,0)"/>
<path d="M10 25h1v1h-1v-1z" fill="rgb(255,158,130)"/>
<path d="M19 25h2v1h-2v-1z" fill="rgb(255,158,130)"/>
<path d="M27 25h2v1h-2v-1z" fill="rgb(255,158,130)"/>
<path d="M37 25h1v1h-1v-1z" fill="rgb(255,158,130)"/>
<path d="M3 26h1v2h-1v-2z" fill="rgb(113,85,0)"/>
<path d="M4 26h1v2h-1v-2z" fill="rgb(255,223,130)"/>
<path d="M11 26h1v1h-1v-1z" fill="rgb(255,158,130)"/>
<path d="M21 26h6v1h-6v-1z" fill="rgb(255,158,130)"/>
<path d="M36 26h1v1h-1v-1z" fill="rgb(255,158,130)"/>
<path d="M43 26h1v2h-1v-2z" fill="rgb(255,223,130)"/>
<path d="M44 26h1v2h-1v-2z" fill="rgb(113,85,0)"/>
<path d="M12 27h1v1h-1v-1z" fill="rgb(255,158,130)"/>
<path d="M35 27h1v1h-1v-1z" fill="rgb(255,158,130)"/>
<path d="M2 28h1v1h-1v-1z" fill="rgb(113,85,0)"/>
<path d="M3 28h1v1h-1v-1z" fill="rgb(255,223,130)"/>
<path d="M13 28h2v1h-2v-1z" fill="rgb(255,158,130)"/>
<path d="M33 28h2v1h-2v-1z" fill="rgb(255,158,130)"/>
<path d="M44 28h1v1h-1v-1z" fill="rgb(255,223,130)"/>
<path d="M45 28h1v1h-1v-1z" fill="rgb(113,85,0)"/>
<path d="M1 29h1v1h-1v-1z" fill="rgb(113,85,0)"/>
<path d="M2 29h1v1h-1v-1z" fill="rgb(255,223,130)"/>
<path d="M14 29h1v1h-1v-1z" fill="rgb(113,85,0)"/>
<path d="M15 29h2v1h-2v-1z" fill="rgb(255,158,130)"/>
<path d="M31 29h2v1h-2v-1z" fill="rgb(255,158,130)"/>
<path d="M33 29h1v1h-1v-1z" fill="rgb(113,85,0)"/>
<path d="M45 29h1v1h-1v-1z" fill="rgb(255,223,130)"/>
<path d="M46 29h1v1h-1v-1z" fill="rgb(113,85,0)"/>
<path d="M2 30h1v1h-1v-1z" fill="rgb(113,85,0)"/>
<path d="M13 30h1v1h-1v-1z" fill="rgb(113,85,0)"/>
<path d="M15 30h2v1h-2v-1z" fill="rgb(113,85,0)"/>
<path d="M17 30h2v1h-2v-1z" fill="rgb(255,158,130)"/>
<path d="M29 30h2v1h-2v-1z" fill="rgb(255,158,130)"/>
<path d="M31 30h2v1h-2v-1z" fill="rgb(113,85,0)"/>
<path d="M34 30h1v1h-1v-1z" fill="rgb(113,85,0)"/>
<path d="M45 30h1v1h-1v-1z" fill="rgb(113,85,0)"/>
<path d="M3 31h2v1h-2v-1z" fill="rgb(113,85,0)"/>
<path d="M12 31h1v1h-1v-1z" fill="rgb(113,85,0)"/>
<path d="M18 31h3v1h-3v-1z" fill="rgb(113,85,0)"/>
<path d="M21 31h6v4h-1v1h-4v-1h-1v-4z" fill="rgb(255,158,130)"/>
<path d="M27 31h3v1h-3v-1z" fill="rgb(113,85,0)"/>
<path d="M35 31h1v1h-1v-1z" fill="rgb(113,85,0)"/>
<path d="M43 31h2v1h-2v-1z" fill="rgb(113,85,0)"/>
<path d="M5 32h7v1h-7v-1z" fill="rgb(113,85,0)"/>
<path d="M17 32h4v1h-4v-1z" fill="rgb(16,0,65)"/>
<path d="M27 32h4v1h-4v-1z" fill="rgb(16,0,65)"/>
<path d="M36 32h7v1h-7v-1z" fill="rgb(113,85,0)"/>
<path d="M13 33h4v1h-4v-1z" fill="rgb(16,0,65)"/>
<path d="M17 33h3v2h-7v-1h4v-1z" fill="rgb(0,57,113)"/>
<path d="M20 33h1v2h-1v-2z" fill="rgb(0,32,65)"/>
<path d="M27 33h1v2h-1v-2z" fill="rgb(0,32,65)"/>
<path d="M28 33h3v1h4v1h-7v-2z" fill="rgb(0,57,113)"/>
<path d="M31 33h4v1h-4v-1z" fill="rgb(16,0,65)"/>
<path d="M12 34h1v1h-1v-1z" fill="rgb(16,0,65)"/>
<path d="M35 34h1v1h-1v-1z" fill="rgb(16,0,65)"/>
<path d="M11 35h1v2h-1v-2z" fill="rgb(16,0,65)"/>
<path d="M12 35h9v1h-9v-1z" fill="rgb(113,81,81)"/>
<path d="M21 35h1v1h-1v-1z" fill="rgb(0,32,65)"/>
<path d="M26 35h1v1h-1v-1z" fill="rgb(0,32,65)"/>
<path d="M27 35h9v1h-9v-1z" fill="rgb(113,81,81)"/>
<path d="M36 35h1v2h-1v-2z" fill="rgb(16,0,65)"/>
<path d="M12 36h10v1h4v-1h10v1h1v1h-26v-1h1v-1z" fill="rgb(0,57,113)"/>
<path d="M22 36h4v1h-4v-1z" fill="rgb(0,32,65)"/>
<path d="M10 37h1v5h-1v-5z" fill="rgb(16,0,65)"/>
<path d="M37 37h1v5h-1v-5z" fill="rgb(16,0,65)"/>
<path d="M11 38h26v1h-26v-1z" fill="rgb(113,81,81)"/>
<path d="M11 39h26v2h-26v-2z" fill="rgb(0,57,113)"/>
<path d="M11 41h26v1h-26v-1z" fill="rgb(113,81,81)"/>
<path d="M11 42h1v5h24v-5h1v6h-26v-6z" fill="rgb(16,0,65)"/>
<path d="M12 42h4v5h-3v-4h-1v-1z" fill="rgb(255,158,130)"/>
<path d="M16 42h16v2h-16v-2z" fill="rgb(0,57,113)"/>
<path d="M32 42h4v1h-1v4h-3v-5z" fill="rgb(255,158,130)"/>
<path d="M12 43h1v4h-1v-4z" fill="rgb(255,223,186)"/>
<path d="M35 43h1v4h-1v-4z" fill="rgb(255,223,186)"/>
<path d="M16 44h16v1h-16v-1z" fill="rgb(113,81,81)"/>
<path d="M16 45h16v2h-16v-2z" fill="rgb(0,57,113)"/>
</svg>