<?xml version="1.0" encoding="utf-8"?>
<!-- generated at drububu.com  -->
<!DOCTYPE svg PUBLIC "-//W3C//DTD SVG 1.1//EN" "http://www.w3.org/Graphics/SVG/1.1/DTD/svg11.dtd">
<svg version="1.1" preserveAspectRatio="xMinYMin meet" xmlns="http://www.w3.org/2000/svg" xmlns:xlink="http://www.w3.org/1999/xlink" x="0px" y="0px" width="48px" height="48px" viewBox="0 0 48 48">
<path d="M12 1h31v1h-31v-1z" fill="rgb(0,65,255)"/>
<path d="M11 2h1v1h-1v-1z" fill="rgb(0,65,255)"/>
<path d="M12 2h31v1h-31v-1z" fill="rgb(0,130,255)"/>
<path d="M43 2h1v1h-1v-1z" fill="rgb(0,65,255)"/>
<path d="M10 3h1v1h-1v-1z" fill="rgb(0,65,255)"/>
<path d="M11 3h1v1h-1v-1z" fill="rgb(0,130,255)"/>
<path d="M12 3h2v1h-2v-1z" fill="rgb(130,223,255)"/>
<path d="M14 3h27v1h2v2h1v16h-1v-1h-1v-1h-1v-1h-27v-1h-2v-2h-1v-10h1v-2h2v-1z" fill="rgb(0,190,255)"/>
<path d="M41 3h2v1h-2v-1z" fill="rgb(130,223,255)"/>
<path d="M43 3h1v1h-1v-1z" fill="rgb(0,130,255)"/>
<path d="M44 3h1v1h-1v-1z" fill="rgb(0,65,255)"/>
<path d="M9 4h1v14h-1v-14z" fill="rgb(0,65,255)"/>
<path d="M10 4h1v14h-1v-14z" fill="rgb(0,130,255)"/>
<path d="M11 4h1v2h-1v-2z" fill="rgb(130,223,255)"/>
<path d="M43 4h1v2h-1v-2z" fill="rgb(130,223,255)"/>
<path d="M44 4h1v19h-1v-19z" fill="rgb(0,130,255)"/>
<path d="M45 4h1v20h-2v-1h1v-19z" fill="rgb(0,65,255)"/>
<path d="M19 6h3v1h1v3h-1v1h-1v2h-2v-2h1v-1h1v-2h-1v1h-2v-2h1v-1z" fill="rgb(130,223,255)"/>
<path d="M27 6h3v1h1v3h-1v1h-1v2h-2v-2h1v-1h1v-2h-1v1h-2v-2h1v-1z" fill="rgb(130,223,255)"/>
<path d="M35 6h3v1h1v3h-1v1h-1v2h-2v-2h1v-1h1v-2h-1v1h-2v-2h1v-1z" fill="rgb(130,223,255)"/>
<path d="M19 14h2v2h-2v-2z" fill="rgb(130,223,255)"/>
<path d="M27 14h2v2h-2v-2z" fill="rgb(130,223,255)"/>
<path d="M35 14h2v2h-2v-2z" fill="rgb(130,223,255)"/>
<path d="M11 16h1v2h-1v-2z" fill="rgb(130,223,255)"/>
<path d="M10 18h1v1h-1v-1z" fill="rgb(0,65,255)"/>
<path d="M11 18h1v1h-1v-1z" fill="rgb(0,130,255)"/>
<path d="M12 18h2v1h-2v-1z" fill="rgb(130,223,255)"/>
<path d="M11 19h1v1h-1v-1z" fill="rgb(0,65,255)"/>
<path d="M12 19h29v1h-29v-1z" fill="rgb(0,130,255)"/>
<path d="M12 20h30v1h-30v-1z" fill="rgb(0,65,255)"/>
<path d="M42 21h1v1h-1v-1z" fill="rgb(0,65,255)"/>
<path d="M4 22h32v1h-32v-1z" fill="rgb(0,170,0)"/>
<path d="M43 22h1v1h-1v-1z" fill="rgb(0,65,255)"/>
<path d="M3 23h1v1h-1v-1z" fill="rgb(0,170,0)"/>
<path d="M4 23h32v1h-32v-1z" fill="rgb(85,255,85)"/>
<path d="M36 23h1v1h-1v-1z" fill="rgb(0,170,0)"/>
<path d="M2 24h1v1h-1v-1z" fill="rgb(0,170,0)"/>
<path d="M3 24h1v1h-1v-1z" fill="rgb(85,255,85)"/>
<path d="M4 24h2v1h-2v-1z" fill="rgb(239,255,186)"/>
<path d="M6 24h28v1h2v2h1v13h-1v2h-2v1h-27v1h-1v1h-2v1h-1v-19h1v-2h2v-1z" fill="rgb(130,255,0)"/>
<path d="M34 24h2v1h-2v-1z" fill="rgb(239,255,186)"/>
<path d="M36 24h1v1h-1v-1z" fill="rgb(85,255,85)"/>
<path d="M37 24h1v1h-1v-1z" fill="rgb(0,170,0)"/>
<path d="M1 25h1v21h2v1h-3v-22z" fill="rgb(0,170,0)"/>
<path d="M2 25h1v21h-1v-21z" fill="rgb(85,255,85)"/>
<path d="M3 25h1v2h-1v-2z" fill="rgb(239,255,186)"/>
<path d="M36 25h1v2h-1v-2z" fill="rgb(239,255,186)"/>
<path d="M37 25h1v17h-1v-17z" fill="rgb(85,255,85)"/>
<path d="M38 25h1v17h-1v-17z" fill="rgb(0,170,0)"/>
<path d="M11 28h3v8h-3v-8z" fill="rgb(239,255,186)"/>
<path d="M19 28h3v8h-3v-8z" fill="rgb(239,255,186)"/>
<path d="M27 28h3v8h-3v-8z" fill="rgb(239,255,186)"/>
<path d="M11 37h3v2h-3v-2z" fill="rgb(239,255,186)"/>
<path d="M19 37h3v2h-3v-2z" fill="rgb(239,255,186)"/>
<path d="M27 37h3v2h-3v-2z" fill="rgb(239,255,186)"/>
<path d="M36 40h1v2h-1v-2z" fill="rgb(239,255,186)"/>
<path d="M34 42h2v1h-2v-1z" fill="rgb(239,255,186)"/>
<path d="M36 42h1v1h-1v-1z" fill="rgb(85,255,85)"/>
<path d="M37 42h1v1h-1v-1z" fill="rgb(0,170,0)"/>
<path d="M7 43h29v1h-29v-1z" fill="rgb(85,255,85)"/>
<path d="M36 43h1v1h-1v-1z" fill="rgb(0,170,0)"/>
<path d="M6 44h30v1h-30v-1z" fill="rgb(0,170,0)"/>
<path d="M4 45h2v1h-2v-1z" fill="rgb(0,170,0)"/>
</svg>