<?xml version="1.0" encoding="utf-8"?>
<!-- generated at drububu.com  -->
<!DOCTYPE svg PUBLIC "-//W3C//DTD SVG 1.1//EN" "http://www.w3.org/Graphics/SVG/1.1/DTD/svg11.dtd">
<svg version="1.1" preserveAspectRatio="xMinYMin meet" xmlns="http://www.w3.org/2000/svg" xmlns:xlink="http://www.w3.org/1999/xlink" x="0px" y="0px" width="16px" height="16px" viewBox="0 0 16 16">
<path d="M2 0h12v3h1v4h-1v1h1v3h-1v1h-6v-1h-1v-3h1v1h1v-1h3v-2h-5v-2h1v-1h1v-1
	h1v1h1v-1h2v-1h-11v-1z" fill="rgb(0,190,255)"/>

<path d="M1 1h1v1h-1v-1z" fill="rgb(85,255,255)"/>
<path d="M2 1h1v1h-1v-1z" fill="rgb(130,223,255)"/>
<path d="M3 1h1v1h-1v-1z" fill="rgb(85,255,255)"/>
<path d="M4 1h1v1h-1v-1z" fill="rgb(130,223,255)"/>
<path d="M5 1h1v1h-1v-1z" fill="rgb(85,255,255)"/>
<path d="M6 1h1v1h-1v-1z" fill="rgb(130,223,255)"/>
<path d="M7 1h1v1h-1v-1z" fill="rgb(85,255,255)"/>
<path d="M8 1h1v1h-1v-1z" fill="rgb(130,190,255)"/>
<path d="M9 1h1v1h-1v-1z" fill="rgb(85,255,255)"/>
<path d="M10 1h1v1h-1v-1z" fill="rgb(130,223,255)"/>
<path d="M11 1h1v1h-1v-1z" fill="rgb(130,190,255)"/>
<path d="M12 1h1v1h-1v-1z" fill="rgb(130,223,255)"/>
<path d="M14 1h1v2h-1v-2z" fill="rgb(130,223,255)"/>
<path d="M0 2h1v4h1v1h1v-1h-1v-1h1v-1h1v9h-1v-1h-1v1h-1v-2h-1v-1h1v-2h-1v-6z" fill="rgb(0,190,255)"/>
<path d="M1 2h1v1h-1v-1z" fill="rgb(130,223,255)"/>
<path d="M2 2h1v1h-1v-1z" fill="rgb(130,255,255)"/>
<path d="M3 2h1v1h-1v-1z" fill="rgb(130,223,255)"/>
<path d="M4 2h1v1h-1v-1z" fill="rgb(85,255,255)"/>
<path d="M5 2h1v1h-1v-1z" fill="rgb(186,255,255)"/>
<path d="M6 2h1v1h-1v-1z" fill="rgb(0,255,255)"/>
<path d="M7 2h1v1h-1v-1z" fill="rgb(130,223,255)"/>
<path d="M8 2h1v1h-1v-1z" fill="rgb(0,255,255)"/>
<path d="M10 2h1v1h-1v-1z" fill="rgb(130,255,255)"/>
<path d="M15 2h1v12h-1v-12z" fill="rgb(0,57,113)"/>
<path d="M1 3h1v1h-1v-1z" fill="rgb(130,190,255)"/>
<path d="M2 3h1v1h-1v-1z" fill="rgb(130,223,255)"/>
<path d="M3 3h1v1h-1v-1z" fill="rgb(130,190,255)"/>
<path d="M4 3h1v1h-1v-1z" fill="rgb(186,255,255)"/>
<path d="M5 3h1v1h-1v-1z" fill="rgb(202,202,202)"/>
<path d="M6 3h1v3h4v1h-1v1h-3v4h5v1h-1v1h-5v-1h-1v-2h-1v-6h1v-1h1v-1z" fill="rgb(255,255,186)"/>
<path d="M7 3h1v1h-1v-1z" fill="rgb(130,190,255)"/>
<path d="M1 4h1v1h-1v-1z" fill="rgb(130,223,255)"/>
<path d="M2 4h1v1h-1v-1z" fill="rgb(85,255,255)"/>
<path d="M4 4h1v1h-1v-1z" fill="rgb(223,255,186)"/>
<path d="M8 4h1v1h-1v-1z" fill="rgb(130,223,255)"/>
<path d="M12 4h1v1h-1v-1z" fill="rgb(0,255,255)"/>
<path d="M1 5h1v1h-1v-1z" fill="rgb(130,190,255)"/>
<path d="M2 6h1v1h-1v-1z" fill="rgb(130,223,255)"/>
<path d="M11 6h1v1h-1v-1z" fill="rgb(186,255,255)"/>
<path d="M10 7h1v1h-1v-1z" fill="rgb(186,255,255)"/>
<path d="M11 7h1v1h-1v-1z" fill="rgb(255,202,186)"/>
<path d="M14 7h1v1h-1v-1z" fill="rgb(0,130,255)"/>
<path d="M0 8h1v1h-1v-1z" fill="rgb(130,190,255)"/>
<path d="M8 8h1v1h-1v-1z" fill="rgb(0,255,255)"/>
<path d="M0 9h1v1h-1v-1z" fill="rgb(0,130,255)"/>
<path d="M2 10h1v1h-1v-1z" fill="rgb(130,223,255)"/>
<path d="M8 10h1v1h-1v-1z" fill="rgb(130,223,255)"/>
<path d="M10 10h1v1h-1v-1z" fill="rgb(130,223,255)"/>
<path d="M0 11h1v2h-1v-2z" fill="rgb(0,130,255)"/>
<path d="M4 11h1v1h-1v-1z" fill="rgb(186,255,255)"/>
<path d="M7 11h1v1h-1v-1z" fill="rgb(186,202,255)"/>
<path d="M14 11h1v1h-1v-1z" fill="rgb(0,130,255)"/>
<path d="M2 12h1v1h-1v-1z" fill="rgb(0,130,255)"/>
<path d="M4 12h1v1h-1v-1z" fill="rgb(130,223,255)"/>
<path d="M12 12h1v2h-2v-1h1v-1z" fill="rgb(202,202,202)"/>
<path d="M13 12h1v1h-1v-1z" fill="rgb(0,130,255)"/>
<path d="M14 12h1v1h-1v-1z" fill="rgb(0,190,255)"/>
<path d="M0 13h1v1h-1v-1z" fill="rgb(0,57,113)"/>
<path d="M1 13h1v1h-1v-1z" fill="rgb(0,130,255)"/>
<path d="M2 13h1v1h-1v-1z" fill="rgb(0,190,255)"/>
<path d="M3 13h1v1h10v1h-12v-1h1v-1z" fill="rgb(0,130,255)"/>
<path d="M4 13h1v1h-1v-1z" fill="rgb(0,190,255)"/>
<path d="M5 13h1v1h-1v-1z" fill="rgb(85,255,255)"/>
<path d="M13 13h1v1h-1v-1z" fill="rgb(0,190,255)"/>
<path d="M14 13h1v1h-1v-1z" fill="rgb(0,130,255)"/>
<path d="M1 14h1v1h-1v-1z" fill="rgb(0,57,113)"/>
<path d="M14 14h1v1h-1v-1z" fill="rgb(0,57,113)"/>
<path d="M2 15h12v1h-12v-1z" fill="rgb(0,57,113)"/>
</svg>